# Blender v2.79 (sub 0) OBJ File: 'spaceship.blend'
# www.blender.org
mtllib spaceship.mtl
o Spaceship_Cube
v 0.750000 -0.500000 0.050000
v 0.750000 0.300000 0.050000
v 2.500000 -0.300000 -0.550000
v 2.500000 -0.150000 -0.550000
v 2.600000 -0.400000 -1.150000
v 2.600000 0.200000 -1.150000
v 2.350000 -0.500000 -1.150000
v 2.350000 0.100000 -1.150000
v 2.320000 -0.300000 -0.690000
v 2.320000 -0.150000 -0.690000
v 0.400000 -0.350000 -0.350000
v 0.400000 0.250000 -0.350000
v 0.750000 -0.450000 -1.350000
v 0.750000 0.200000 -1.350000
v 0.600000 0.100000 -1.350000
v 0.600000 -0.300000 -1.350000
v 0.400000 0.000000 -1.050000
v 0.400000 -0.200000 -1.050000
v 1.000000 -0.220000 -0.150000
v 1.000000 0.070000 -0.150000
v 1.000000 -0.300000 -0.400000
v 1.000000 0.050000 -0.400000
v 0.000000 0.000000 3.050000
v 0.000000 -0.300000 0.550000
v 0.000000 0.650000 0.500000
v -0.750000 -0.500000 0.050000
v -0.750000 0.300000 0.050000
v -2.500000 -0.300000 -0.550000
v -2.500000 -0.150000 -0.550000
v -2.600000 -0.400000 -1.150000
v -2.600000 0.200000 -1.150000
v -2.350000 -0.500000 -1.150000
v -2.350000 0.100000 -1.150000
v -2.320000 -0.300000 -0.690000
v -2.320000 -0.150000 -0.690000
v -0.400000 -0.350000 -0.350000
v -0.400000 0.250000 -0.350000
v -0.750000 -0.450000 -1.350000
v -0.750000 0.200000 -1.350000
v 0.000000 0.400000 -0.350000
v 0.000000 0.550000 -1.350000
v 0.000000 -0.650000 -1.350000
v 0.000000 -0.250000 -0.350000
v -0.600000 0.100000 -1.350000
v -0.600000 -0.300000 -1.350000
v 0.000000 0.400000 -1.350000
v 0.000000 -0.500000 -1.350000
v -0.400000 0.000000 -1.050000
v -0.400000 -0.200000 -1.050000
v 0.000000 0.200000 -1.200000
v 0.000000 -0.300000 -1.200000
v -1.000000 -0.220000 -0.150000
v -1.000000 0.070000 -0.150000
v -1.000000 -0.300000 -0.400000
v -1.000000 0.050000 -0.400000
vt 0.033333 0.550000
vt 0.300000 0.550000
vt 0.300000 0.950000
vt 0.033333 0.950000
vt 0.033333 0.550000
vt 0.300000 0.550000
vt 0.300000 0.950000
vt 0.300000 0.550000
vt 0.300000 0.950000
vt 0.033333 0.049554
vt 0.300000 0.049554
vt 0.300000 0.449554
vt 0.366667 0.750000
vt 0.633333 0.750000
vt 0.633333 0.950000
vt 0.366667 0.950000
vt 0.366667 0.050000
vt 0.633333 0.050000
vt 0.633333 0.450000
vt 0.366667 0.450000
vt 0.366667 0.050000
vt 0.633333 0.050000
vt 0.633333 0.450000
vt 0.366667 0.450000
vt 0.366667 0.250000
vt 0.633333 0.250000
vt 0.633333 0.450000
vt 0.366667 0.450000
vt 0.033333 0.049554
vt 0.300000 0.049554
vt 0.300000 0.449554
vt 0.033333 0.449554
vt 0.366667 0.250000
vt 0.633333 0.250000
vt 0.633333 0.450000
vt 0.366667 0.450000
vt 0.366667 0.050000
vt 0.633333 0.450000
vt 0.366667 0.450000
vt 0.366667 0.750000
vt 0.633333 0.750000
vt 0.633333 0.950000
vt 0.366667 0.950000
vt 0.700000 0.050000
vt 0.966667 0.050000
vt 0.966667 0.450000
vt 0.033333 0.550000
vt 0.300000 0.550000
vt 0.300000 0.950000
vt 0.033333 0.049554
vt 0.300000 0.049554
vt 0.300000 0.449554
vt 0.033333 0.045986
vt 0.300000 0.045986
vt 0.300000 0.445986
vt 0.033333 0.049554
vt 0.300000 0.049554
vt 0.300000 0.449554
vt 0.033333 0.449554
vt 0.033333 0.049554
vt 0.300000 0.449554
vt 0.700000 0.050000
vt 0.966667 0.050000
vt 0.966667 0.450000
vt 0.033333 0.049554
vt 0.300000 0.449554
vt 0.033333 0.049554
vt 0.300000 0.049554
vt 0.300000 0.449554
vt 0.033333 0.449554
vt 0.033333 0.049554
vt 0.300000 0.049554
vt 0.300000 0.449554
vt 0.033333 0.449554
vt 0.700000 0.050000
vt 0.966667 0.050000
vt 0.966667 0.450000
vt 0.700000 0.450000
vt 0.700000 0.050000
vt 0.966667 0.050000
vt 0.966667 0.450000
vt 0.700000 0.450000
vt 0.700000 0.050000
vt 0.966667 0.050000
vt 0.966667 0.450000
vt 0.700000 0.450000
vt 0.700000 0.550000
vt 0.966667 0.550000
vt 0.966667 0.950000
vt 0.700000 0.950000
vt 0.366667 0.050000
vt 0.633333 0.450000
vt 0.366667 0.450000
vt 0.633333 0.050000
vt 0.633333 0.450000
vt 0.366667 0.050000
vt 0.633333 0.050000
vt 0.366667 0.250000
vt 0.366667 0.550000
vt 0.633333 0.550000
vt 0.633333 0.750000
vt 0.366667 0.550000
vt 0.633333 0.550000
vt 0.366667 0.750000
vt 0.366667 0.050000
vt 0.633333 0.050000
vt 0.633333 0.250000
vt 0.033333 0.550000
vt 0.300000 0.550000
vt 0.300000 0.950000
vt 0.033333 0.950000
vt 0.300000 0.950000
vt 0.300000 0.550000
vt 0.300000 0.550000
vt 0.033333 0.049554
vt 0.300000 0.049554
vt 0.366667 0.750000
vt 0.366667 0.950000
vt 0.633333 0.950000
vt 0.633333 0.750000
vt 0.366667 0.050000
vt 0.366667 0.450000
vt 0.633333 0.450000
vt 0.633333 0.050000
vt 0.366667 0.050000
vt 0.366667 0.450000
vt 0.633333 0.450000
vt 0.633333 0.050000
vt 0.366667 0.250000
vt 0.366667 0.450000
vt 0.633333 0.450000
vt 0.633333 0.250000
vt 0.033333 0.049554
vt 0.033333 0.449554
vt 0.300000 0.449554
vt 0.300000 0.049554
vt 0.366667 0.250000
vt 0.366667 0.450000
vt 0.633333 0.450000
vt 0.633333 0.250000
vt 0.366667 0.050000
vt 0.366667 0.450000
vt 0.633333 0.450000
vt 0.366667 0.750000
vt 0.366667 0.950000
vt 0.633333 0.950000
vt 0.633333 0.750000
vt 0.966667 0.450000
vt 0.033333 0.550000
vt 0.300000 0.550000
vt 0.300000 0.049554
vt 0.033333 0.045986
vt 0.300000 0.445986
vt 0.033333 0.049554
vt 0.033333 0.449554
vt 0.300000 0.449554
vt 0.700000 0.050000
vt 0.300000 0.449554
vt 0.033333 0.049554
vt 0.033333 0.449554
vt 0.300000 0.449554
vt 0.300000 0.049554
vt 0.300000 0.449554
vt 0.300000 0.049554
vt 0.700000 0.050000
vt 0.700000 0.450000
vt 0.966667 0.450000
vt 0.966667 0.050000
vt 0.700000 0.050000
vt 0.700000 0.450000
vt 0.966667 0.450000
vt 0.966667 0.050000
vt 0.700000 0.550000
vt 0.700000 0.950000
vt 0.366667 0.050000
vt 0.366667 0.450000
vt 0.633333 0.450000
vt 0.633333 0.450000
vt 0.633333 0.050000
vt 0.366667 0.050000
vt 0.366667 0.250000
vt 0.633333 0.050000
vt 0.366667 0.550000
vt 0.633333 0.750000
vt 0.633333 0.550000
vt 0.366667 0.550000
vt 0.366667 0.750000
vt 0.633333 0.550000
vt 0.366667 0.050000
vt 0.633333 0.250000
vt 0.633333 0.050000
vt 0.033333 0.550000
vt 0.300000 0.950000
vn -0.5412 -0.0240 -0.8406
vn 0.5148 0.8308 0.2118
vn -0.1822 -0.9763 0.1172
vn 0.9701 0.0000 0.2425
vn 0.2577 0.0000 0.9662
vn 0.0000 0.0000 -1.0000
vn -0.3355 0.8369 0.4326
vn -0.0830 0.0000 -0.9965
vn 0.9439 0.0000 0.3304
vn 0.3625 0.8855 -0.2906
vn 0.9864 0.0000 0.1644
vn 0.0192 -0.9811 0.1924
vn 0.3385 0.9027 -0.2655
vn 0.4207 0.9014 0.1022
vn 0.3477 0.9272 0.1391
vn 0.2356 0.9174 -0.3208
vn -0.3091 -0.9472 -0.0848
vn -0.2422 -0.9687 -0.0538
vn -0.2261 -0.9044 0.3618
vn -0.1483 0.7911 -0.5934
vn -0.2768 -0.7382 -0.6152
vn -0.8321 0.0000 -0.5547
vn 0.3511 0.0000 -0.9363
vn 0.1283 -0.9500 0.2846
vn -0.9979 0.0000 -0.0651
vn 0.2846 -0.9247 -0.2528
vn 0.1209 0.9869 -0.1064
vn -0.2146 0.0000 -0.9767
vn 0.6247 0.0000 0.7809
vn 0.2533 -0.9498 0.1836
vn 0.5412 -0.0240 -0.8406
vn -0.5148 0.8308 0.2118
vn 0.1822 -0.9763 0.1172
vn -0.9701 0.0000 0.2425
vn -0.2577 0.0000 0.9662
vn 0.3355 0.8369 0.4326
vn 0.0830 0.0000 -0.9965
vn -0.9439 0.0000 0.3304
vn -0.3625 0.8855 -0.2906
vn -0.9864 0.0000 0.1644
vn -0.0192 -0.9811 0.1924
vn -0.3385 0.9027 -0.2655
vn -0.4207 0.9014 0.1022
vn -0.3477 0.9272 0.1391
vn -0.2356 0.9174 -0.3208
vn 0.3091 -0.9472 -0.0848
vn 0.2422 -0.9687 -0.0538
vn 0.2261 -0.9044 0.3618
vn 0.1483 0.7911 -0.5934
vn 0.2768 -0.7382 -0.6152
vn 0.8321 0.0000 -0.5547
vn -0.3511 0.0000 -0.9363
vn -0.1283 -0.9500 0.2846
vn 0.9979 0.0000 -0.0651
vn -0.2846 -0.9247 -0.2528
vn -0.1209 0.9869 -0.1064
vn 0.2146 0.0000 -0.9767
vn -0.6247 0.0000 0.7809
vn -0.2533 -0.9498 0.1836
usemtl Spaceship
s off
f 24/1/1 25/2/1 2/3/1 1/4/1
f 23/5/2 2/6/2 25/7/2
f 24/1/3 1/8/3 23/9/3
f 1/10/4 2/11/4 23/12/4
f 20/13/5 19/14/5 3/15/5 4/16/5
f 6/17/6 5/18/6 7/19/6 8/20/6
f 8/21/7 10/22/7 4/23/7 6/24/7
f 22/25/8 21/26/8 11/27/8 12/28/8
f 12/29/9 11/30/9 13/31/9 14/32/9
f 20/33/10 22/34/10 12/35/10 2/36/10
f 3/37/11 5/18/11 6/38/11 4/39/11
f 19/40/12 21/41/12 9/42/12 3/43/12
f 40/44/13 25/45/13 12/46/13
f 12/47/14 14/48/14 41/49/14
f 40/50/15 12/51/15 41/52/15
f 12/53/16 25/54/16 2/55/16
f 13/56/6 42/57/6 47/58/6 16/59/6
f 24/60/17 11/30/17 1/61/17
f 11/62/18 24/63/18 43/64/18
f 43/65/19 42/57/19 11/66/19
f 14/67/6 13/68/6 16/69/6 15/70/6
f 41/71/6 14/72/6 15/73/6 46/74/6
f 16/75/20 47/76/20 51/77/20 18/78/20
f 46/79/21 15/80/21 17/81/21 50/82/21
f 15/83/22 16/84/22 18/85/22 17/86/22
f 18/87/23 51/88/23 50/89/23 17/90/23
f 7/91/24 5/18/24 3/92/24 9/93/24
f 7/91/25 9/94/25 10/95/25 8/20/25
f 1/96/26 11/97/26 21/26/26 19/98/26
f 4/99/27 10/100/27 22/101/27 20/13/27
f 10/102/28 9/103/28 21/41/28 22/104/28
f 2/105/29 1/106/29 19/107/29 20/33/29
f 11/108/30 42/109/30 13/110/30
f 24/1/31 26/111/31 27/112/31 25/2/31
f 23/5/32 25/7/32 27/113/32
f 24/1/33 23/9/33 26/114/33
f 26/115/34 23/12/34 27/116/34
f 53/117/35 29/118/35 28/119/35 52/120/35
f 31/121/6 33/122/6 32/123/6 30/124/6
f 33/125/36 31/126/36 29/127/36 35/128/36
f 55/129/37 37/130/37 36/131/37 54/132/37
f 37/133/38 39/134/38 38/135/38 36/136/38
f 53/137/39 27/138/39 37/139/39 55/140/39
f 28/141/40 29/142/40 31/143/40 30/124/40
f 52/144/41 28/145/41 34/146/41 54/147/41
f 40/44/42 37/148/42 25/45/42
f 37/149/43 41/49/43 39/150/43
f 40/50/44 41/52/44 37/151/44
f 37/152/45 27/153/45 25/54/45
f 38/154/6 45/155/6 47/58/6 42/57/6
f 24/60/46 26/156/46 36/136/46
f 36/157/47 43/64/47 24/63/47
f 43/65/48 36/158/48 42/57/48
f 39/159/6 44/160/6 45/161/6 38/162/6
f 41/71/6 46/74/6 44/163/6 39/164/6
f 45/165/49 49/166/49 51/77/49 47/76/49
f 46/79/50 50/82/50 48/167/50 44/168/50
f 44/169/51 48/170/51 49/171/51 45/172/51
f 49/173/52 48/174/52 50/89/52 51/88/52
f 32/175/53 34/176/53 28/177/53 30/124/53
f 32/175/54 33/122/54 35/178/54 34/179/54
f 26/180/55 52/181/55 54/132/55 36/182/55
f 29/183/56 53/117/56 55/184/56 35/185/56
f 35/186/57 55/187/57 54/147/57 34/188/57
f 27/189/58 53/137/58 52/190/58 26/191/58
f 36/192/59 38/193/59 42/109/59
